<svg id="Layer_1" enable-background="new 0 0 512 512" height="512" viewBox="0 0 512 512" width="512" xmlns="http://www.w3.org/2000/svg">
   <g>
      <g>
         <path d="m407.254 332.671c8.135-215.439-15.138-332.671-151.254-332.671s-159.389 117.232-151.254 332.671z" fill="#2d4456"/>
         <path d="m296.715 281.835h-81.429c-45.351 0-85.549 20.01-110.533 50.835.483 12.793 1.07 25.848 1.758 39.185h.001c-.001 0 298.978 0 298.978 0h.001c.687-13.337 1.275-26.392 1.758-39.185-24.986-30.825-65.183-50.835-110.534-50.835z" fill="#253847"/>
         <path d="m408.114 502.36h-304.228l-9.64-9.64v-66.861c0-50.74 30.295-94.405 73.784-113.893l173.537-1.047c44.772 18.937 76.188 63.27 76.188 114.94v66.861z" fill="#ffcf4d"/>
         <path d="m99.602 512h50.517l8.033-9.64 8.034 9.64h179.628l8.033-9.64 8.033 9.64h50.517c2.958 0 5.356-2.398 5.356-5.356v-13.924h-323.507v13.925c0 2.957 2.398 5.355 5.356 5.355z" fill="#ffb629"/>
         <path d="m256 353.518-39.481-52.371c-17.247.335-33.636 4.167-48.487 10.822 48.486 135.037 87.968 41.549 87.968 41.549z" fill="#ff9517"/>
         <path d="m256 353.518 39.481-52.371c17.247.335 33.636 4.167 48.487 10.822-48.486 135.037-87.968 41.549-87.968 41.549z" fill="#ff9517"/>
         <path d="m216.518 301.116s0 52.402 39.482 52.402 39.482-52.402 39.482-52.402z" fill="#ffc4ad"/>
         <path d="m203.669 106.799c-5.849 12.83-19.964 37.554-45.725 49.075-1.933.865-3.189 2.771-3.189 4.889v29.468 9.64c0 55.916 45.329 101.244 101.244 101.244 55.915 0 101.244-45.328 101.244-101.244v-9.64-37.094c0-3.044-2.531-5.47-5.573-5.351-21.46.837-99.526.702-139.143-42.37-2.616-2.845-7.254-2.135-8.858 1.383z" fill="#ffe0cc"/>
         <path d="m256 291.475c-55.915 0-101.244-45.328-101.244-101.244v19.28c0 55.915 45.329 101.244 101.244 101.244s101.244-45.328 101.244-101.244v-19.28c0 55.916-45.329 101.244-101.244 101.244z" fill="#ffceb3"/>
         <g fill="#ff9517">
            <path d="m166.186 441.284v51.436l-8.034 9.64-8.033-9.64v-51.436c0-4.445 3.588-8.034 8.033-8.034 4.435 0 8.034 3.589 8.034 8.034z"/>
            <path d="m361.881 441.284v51.436l-8.033 9.64-8.033-9.64v-51.436c0-4.445 3.599-8.034 8.033-8.034 4.445 0 8.033 3.589 8.033 8.034z"/>
         </g>
         <g fill="#ef7f0f">
            <path d="m150.119 492.72h16.067v19.28h-16.067z"/>
            <path d="m345.814 492.72h16.067v19.28h-16.067z"/>
         </g>
      </g>
      <g>
         <path d="m206.845 170.195c-4.446 0-8.049 3.603-8.049 8.049v22.741c0 4.446 3.603 8.049 8.049 8.049s8.049-3.603 8.049-8.049v-22.741c.001-4.445-3.603-8.049-8.049-8.049z" fill="#2d4456"/>
         <path d="m305.155 209.035c4.446 0 8.049-3.603 8.049-8.049v-22.741c0-4.446-3.603-8.049-8.049-8.049s-8.049 3.603-8.049 8.049v22.741c-.001 4.446 3.603 8.049 8.049 8.049z" fill="#2d4456"/>
         <path d="m285.638 244.353-.012-.005c.513-1.059.809-2.243.809-3.499-.12-8.991-12.439-11.082-15.589-2.797l-.017-.007c-.34.716-3.64 6.986-14.83 6.986s-14.491-6.271-14.83-6.986l-.017.007c-4.296-10.266-19.213-3.99-14.78 6.296l-.012.005c2.566 6.231 11.696 16.777 29.639 16.777s27.074-10.547 29.639-16.777z" fill="#ff5876"/>
      </g>
   </g>
</svg>