<?xml version="1.0" encoding="utf-8"?>

<!DOCTYPE svg PUBLIC "-//W3C//DTD SVG 1.1//EN" "http://www.w3.org/Graphics/SVG/1.1/DTD/svg11.dtd">
<svg version="1.1" id="Layer_1" xmlns="http://www.w3.org/2000/svg" xmlns:xlink="http://www.w3.org/1999/xlink" x="0px" y="0px"
	 viewBox="0 0 2643.153 1768.035" enable-background="new 0 0 2643.153 1768.035" xml:space="preserve">
<g opacity="0.05">
	<path d="M41.719,1006.278h37.4v9.528H83.1v84.043h110.493v-53.611h12.087v-4.124h21.615v-3.129h13.225v-8.106h66.409v10.097h20.904
		v20.193h39.391l8.959-3.271h20.193l19.482,8.959v2.133h7.537v35.835h15.216v-81.057h26.308v-4.977h5.119v4.551h4.408v-4.124h2.702
		v4.266h2.417v2.702h6.115v-5.546h9.954v-4.124h22.753v5.546h5.119v11.661h4.124v46.43h21.686l-0.356-367.527l21.402-7.466
		l24.388,2.489v-18.273h3.413v7.11h13.794v-7.181h6.47v7.039h12.585v-5.901h4.764v12.016H702.4v-13.296h19.909v12.798l46.43,4.622
		l0.071,371.083h9.883v1.706h13.083v7.11h7.608v-3.555h9.599v3.128h24.815l-0.853-164.744l81.696-1.067l4.408-593.064
		c0,0,2.133-6.115,13.794-7.395l34.342-2.417v-2.702h2.346l0.995,3.342l49.487,21.26l-0.64,35.267l18.842,8.035l0.071-63.352
		l15.358-13.581l1.707-126.135l13.865-14.007l3.413-28.299l0.64-47.852h-1.849v-7.395h1.422l1.138-43.586h7.75l-1.422,93.286
		l1.493,0.213l0.284,3.2l-1.778,0.427l4.622,31.569l4.551-3.129l3.911-0.071l4.622,3.413l1.138,6.47l8.035,4.479l-1.635,135.165
		l9.812,3.413l-0.142,31.143l4.906-4.266l37.115-0.213c0,0,22.539,0.498,23.677,10.452l-2.346,252.271l53.967-1.138l11.163,20.335
		l-1.635,436.568l22.611,0.498l1.493-304.246h17.847v-3.342h6.399v3.484l12.656,5.759v14.149h-6.328v19.055h11.092v-6.612h45.719
		v-10.523h62.641v-9.883c0,0,38.822,0.569,46.714-8.035l61.859-2.275l-1.849,308.228h21.046l0.213-116.608l31.996-1.067l0.142-76.15
		l57.308-0.64l-0.64,71.031h4.337l0.782-169.65l3.982-4.693l14.007-3.2l0.284-50.34l3.413-4.835l12.798-2.062l31.214-0.782
		l9.954,2.275l-0.071,51.478l35.267,5.688l-1.849,273.032h12.087v2.489h4.764v-5.475h3.839v5.759h18.487l2.417-600.672
		c0,0,7.466-9.599,28.512-13.794l0.569-9.954l10.95-6.684l10.239-2.133h5.901l-1.28-139.289l5.83-6.399l4.124,6.328l0.498,139.076
		l10.025,1.209l9.528,1.422l8.461,4.195l0.64,16.14h69.182v54.891h59.015l-1.244,365.359h80.523l-0.64-75.831h2.666v-14.398
		l17.278-2.666v-11.092l66.872-9.172v-39.782l31.676-0.853l12.692-3.52V680.63h48.101v9.812l21.011,7.039v-6.932h46.714
		l-3.413,297.136h27.197v5.973h15.465l1.707-116.785h4.266v-8.639h1.386v-25.17h6.506v-8.426h4.159l16.958-47.141l17.491,44.261
		v4.053l56.526-5.546l-1.707-128.091l26.877-4.586l82.23-3.733v-9.492l9.385-7.252v1052.562h-2560
		C41.576,1729.672,44.42,1006.278,41.719,1006.278z"/>
</g>
</svg>
